<?xml version="1.0" encoding="UTF-8" standalone="no"?>
<!DOCTYPE svg PUBLIC "-//W3C//DTD SVG 1.1//EN"
 "http://www.w3.org/Graphics/SVG/1.1/DTD/svg11.dtd">
<!-- Generated by graphviz version 2.40.1 (20161225.0304)
 -->
<!-- Title: G Pages: 1 -->
<svg width="526pt" height="272pt"
 viewBox="0.00 0.00 525.50 272.00" xmlns="http://www.w3.org/2000/svg" xmlns:xlink="http://www.w3.org/1999/xlink">
<g id="graph0" class="graph" transform="scale(1 1) rotate(0) translate(4 268)">
<title>G</title>
<polygon fill="#ffffff" stroke="transparent" points="-4,4 -4,-268 521.5,-268 521.5,4 -4,4"/>
<!-- A0 -->
<g id="node1" class="node">
<title>A0</title>
<polygon fill="none" stroke="#000000" points=".5,-132 .5,-164 71.5,-164 71.5,-132 .5,-132"/>
<text text-anchor="start" x="10.0245" y="-145" font-family="Helvetica,sans-Serif" font-size="10.00" fill="#000000">+ICustomer</text>
<polygon fill="none" stroke="#000000" points=".5,-100 .5,-132 71.5,-132 71.5,-100 .5,-100"/>
<text text-anchor="start" x="17.249" y="-113" font-family="Helvetica,sans-Serif" font-size="10.00" fill="#000000">+Greet()</text>
</g>
<!-- A1 -->
<g id="node2" class="node">
<title>A1</title>
<polygon fill="none" stroke="#000000" points="89.5,-176 89.5,-208 223.5,-208 223.5,-176 89.5,-176"/>
<text text-anchor="start" x="131.914" y="-189" font-family="Helvetica,sans-Serif" font-size="10.00" fill="#000000">+Customer</text>
<polygon fill="none" stroke="#000000" points="89.5,-120 89.5,-176 223.5,-176 223.5,-120 89.5,-120"/>
<text text-anchor="start" x="139.688" y="-157" font-family="Helvetica,sans-Serif" font-size="10.00" fill="#000000">+name:</text>
<text text-anchor="start" x="144.2775" y="-145" font-family="Helvetica,sans-Serif" font-size="10.00" fill="#000000">string</text>
<text text-anchor="start" x="99.0015" y="-133" font-family="Helvetica,sans-Serif" font-size="10.00" fill="#000000">&#45;creditCardNumber: string</text>
<polygon fill="none" stroke="#000000" points="89.5,-88 89.5,-120 223.5,-120 223.5,-88 89.5,-88"/>
<text text-anchor="start" x="111.6385" y="-101" font-family="Helvetica,sans-Serif" font-size="10.00" fill="#000000">+CreditCardNumber</text>
<polygon fill="none" stroke="#000000" points="89.5,-56 89.5,-88 223.5,-88 223.5,-56 89.5,-56"/>
<text text-anchor="start" x="137.749" y="-69" font-family="Helvetica,sans-Serif" font-size="10.00" fill="#000000">+Greet()</text>
</g>
<!-- A2 -->
<g id="node3" class="node">
<title>A2</title>
<polygon fill="none" stroke="#000000" points="241.5,-232 241.5,-264 399.5,-264 399.5,-232 241.5,-232"/>
<text text-anchor="start" x="298.139" y="-245" font-family="Helvetica,sans-Serif" font-size="10.00" fill="#000000">+HotDrink</text>
<polygon fill="none" stroke="#000000" points="241.5,-68 241.5,-232 399.5,-232 399.5,-68 241.5,-68"/>
<text text-anchor="start" x="301.464" y="-213" font-family="Helvetica,sans-Serif" font-size="10.00" fill="#000000">+instant:</text>
<text text-anchor="start" x="311.052" y="-201" font-family="Helvetica,sans-Serif" font-size="10.00" fill="#000000">bool</text>
<text text-anchor="start" x="307.3075" y="-189" font-family="Helvetica,sans-Serif" font-size="10.00" fill="#000000">+milk:</text>
<text text-anchor="start" x="311.052" y="-177" font-family="Helvetica,sans-Serif" font-size="10.00" fill="#000000">bool</text>
<text text-anchor="start" x="304.943" y="-165" font-family="Helvetica,sans-Serif" font-size="10.00" fill="#000000">&#45;sugar:</text>
<text text-anchor="start" x="311.0515" y="-153" font-family="Helvetica,sans-Serif" font-size="10.00" fill="#000000">byte</text>
<text text-anchor="start" x="303.4085" y="-141" font-family="Helvetica,sans-Serif" font-size="10.00" fill="#000000">+brand:</text>
<text text-anchor="start" x="308.2775" y="-129" font-family="Helvetica,sans-Serif" font-size="10.00" fill="#000000">string</text>
<text text-anchor="start" x="307.302" y="-117" font-family="Helvetica,sans-Serif" font-size="10.00" fill="#000000">+size:</text>
<text text-anchor="start" x="308.2775" y="-105" font-family="Helvetica,sans-Serif" font-size="10.00" fill="#000000">string</text>
<text text-anchor="start" x="296.889" y="-93" font-family="Helvetica,sans-Serif" font-size="10.00" fill="#000000">&#45;customer:</text>
<text text-anchor="start" x="298.8335" y="-81" font-family="Helvetica,sans-Serif" font-size="10.00" fill="#000000">Customer</text>
<polygon fill="none" stroke="#000000" points="241.5,0 241.5,-68 399.5,-68 399.5,0 241.5,0"/>
<text text-anchor="start" x="294.81" y="-49" font-family="Helvetica,sans-Serif" font-size="10.00" fill="#000000">+HotDrink()</text>
<text text-anchor="start" x="267.026" y="-37" font-family="Helvetica,sans-Serif" font-size="10.00" fill="#000000">+HotDrink(brand: string)</text>
<text text-anchor="start" x="251.1735" y="-25" font-family="Helvetica,sans-Serif" font-size="10.00" fill="#000000">+AddSugar(amount: byte): void</text>
<text text-anchor="start" x="287.8565" y="-13" font-family="Helvetica,sans-Serif" font-size="10.00" fill="#000000">+Steam(): void</text>
</g>
<!-- A3 -->
<g id="node4" class="node">
<title>A3</title>
<polygon fill="none" stroke="#000000" points="417.5,-132 417.5,-164 517.5,-164 517.5,-132 417.5,-132"/>
<text text-anchor="start" x="435.406" y="-145" font-family="Helvetica,sans-Serif" font-size="10.00" fill="#000000">+CupOfCoffee</text>
<polygon fill="none" stroke="#000000" points="417.5,-100 417.5,-132 517.5,-132 517.5,-100 417.5,-100"/>
<text text-anchor="start" x="427.3475" y="-113" font-family="Helvetica,sans-Serif" font-size="10.00" fill="#000000">+beanType: string</text>
</g>
</g>
</svg>
