<?xml version="1.0" encoding="UTF-8" standalone="no"?>
<!DOCTYPE svg PUBLIC "-//W3C//DTD SVG 1.1//EN"
 "http://www.w3.org/Graphics/SVG/1.1/DTD/svg11.dtd">
<!-- Generated by graphviz version 2.40.1 (20161225.0304)
 -->
<!-- Title: G Pages: 1 -->
<svg width="500pt" height="306pt"
 viewBox="0.00 0.00 500.00 306.00" xmlns="http://www.w3.org/2000/svg" xmlns:xlink="http://www.w3.org/1999/xlink">
<g id="graph0" class="graph" transform="scale(1 1) rotate(0) translate(4 302)">
<title>G</title>
<polygon fill="#ffffff" stroke="transparent" points="-4,4 -4,-302 496,-302 496,4 -4,4"/>
<!-- A0 -->
<g id="node1" class="node">
<title>A0</title>
<polygon fill="none" stroke="#000000" points="140,-266 140,-298 228,-298 228,-266 140,-266"/>
<text text-anchor="start" x="169.278" y="-279" font-family="Helvetica,sans-Serif" font-size="10.00" fill="#000000">A:Wolf</text>
<polygon fill="none" stroke="#000000" points="140,-234 140,-266 228,-266 228,-234 140,-234"/>
<text text-anchor="start" x="182.6105" y="-247" font-family="Helvetica,sans-Serif" font-size="10.00" fill="#000000"> </text>
<polygon fill="none" stroke="#000000" points="140,-154 140,-234 228,-234 228,-154 140,-154"/>
<text text-anchor="start" x="157.885" y="-215" font-family="Helvetica,sans-Serif" font-size="10.00" fill="#000000">name:string</text>
<text text-anchor="start" x="168.9935" y="-203" font-family="Helvetica,sans-Serif" font-size="10.00" fill="#000000">age:int</text>
<text text-anchor="start" x="149.687" y="-191" font-family="Helvetica,sans-Serif" font-size="10.00" fill="#000000">+Sound():string</text>
<text text-anchor="start" x="170.248" y="-179" font-family="Helvetica,sans-Serif" font-size="10.00" fill="#000000">+Eat()</text>
<text text-anchor="start" x="164.969" y="-167" font-family="Helvetica,sans-Serif" font-size="10.00" fill="#000000">+Sleep()</text>
<polygon fill="none" stroke="#000000" points="140,-134 140,-154 228,-154 228,-134 140,-134"/>
</g>
<!-- A2 -->
<g id="node3" class="node">
<title>A2</title>
<polygon fill="none" stroke="#000000" points="0,-52 0,-84 80,-84 80,-52 0,-52"/>
<text text-anchor="start" x="23.7435" y="-65" font-family="Helvetica,sans-Serif" font-size="10.00" fill="#000000">+I:Hunt</text>
<polygon fill="none" stroke="#000000" points="0,-32 0,-52 80,-52 80,-32 0,-32"/>
<polygon fill="none" stroke="#000000" points="0,0 0,-32 80,-32 80,0 0,0"/>
<text text-anchor="start" x="9.5815" y="-13" font-family="Helvetica,sans-Serif" font-size="10.00" fill="#000000">+Hunt():string</text>
</g>
<!-- A0&#45;&gt;A2 -->
<g id="edge5" class="edge">
<title>A0&#45;&gt;A2</title>
<path fill="none" stroke="#000000" d="M133.1718,-154.5826C113.8789,-131.2703 92.3598,-105.2681 74.867,-84.131"/>
<polygon fill="none" stroke="#000000" points="130.5482,-156.902 139.6203,-162.3745 135.9409,-152.439 130.5482,-156.902"/>
</g>
<!-- A3 -->
<g id="node4" class="node">
<title>A3</title>
<polygon fill="none" stroke="#000000" points="99,-52 99,-84 180,-84 180,-52 99,-52"/>
<text text-anchor="start" x="122.6935" y="-65" font-family="Helvetica,sans-Serif" font-size="10.00" fill="#000000">+I:Howl</text>
<polygon fill="none" stroke="#000000" points="99,-32 99,-52 180,-52 180,-32 99,-32"/>
<polygon fill="none" stroke="#000000" points="99,0 99,-32 180,-32 180,0 99,0"/>
<text text-anchor="start" x="108.5315" y="-13" font-family="Helvetica,sans-Serif" font-size="10.00" fill="#000000">+Howl():string</text>
</g>
<!-- A0&#45;&gt;A3 -->
<g id="edge6" class="edge">
<title>A0&#45;&gt;A3</title>
<path fill="none" stroke="#000000" d="M160.2406,-124.1305C156.6167,-110.1179 153.0365,-96.2743 149.8776,-84.0599"/>
<polygon fill="none" stroke="#000000" points="156.8594,-125.0354 162.7519,-133.8406 163.6365,-123.2827 156.8594,-125.0354"/>
</g>
<!-- A4 -->
<g id="node5" class="node">
<title>A4</title>
<polygon fill="none" stroke="#000000" points="198,-46 198,-78 259,-78 259,-46 198,-46"/>
<text text-anchor="start" x="207.6685" y="-59" font-family="Helvetica,sans-Serif" font-size="10.00" fill="#000000">GreyWolf</text>
<polygon fill="none" stroke="#000000" points="198,-26 198,-46 259,-46 259,-26 198,-26"/>
<polygon fill="none" stroke="#000000" points="198,-6 198,-26 259,-26 259,-6 198,-6"/>
</g>
<!-- A0&#45;&gt;A4 -->
<g id="edge1" class="edge">
<title>A0&#45;&gt;A4</title>
<path fill="none" stroke="#000000" stroke-dasharray="5,2" d="M207.3252,-123.7593C211.415,-107.5863 215.4434,-91.6557 218.8425,-78.2139"/>
<polygon fill="#000000" stroke="#000000" points="204.776,-133.8406 202.8649,-123.0425 206.0018,-128.9931 207.2276,-124.1457 207.2276,-124.1457 207.2276,-124.1457 206.0018,-128.9931 211.5903,-125.249 204.776,-133.8406 204.776,-133.8406"/>
</g>
<!-- A5 -->
<g id="node6" class="node">
<title>A5</title>
<polygon fill="none" stroke="#000000" points="277,-46 277,-78 348,-78 348,-46 277,-46"/>
<text text-anchor="start" x="286.95" y="-59" font-family="Helvetica,sans-Serif" font-size="10.00" fill="#000000">TimberWolf</text>
<polygon fill="none" stroke="#000000" points="277,-26 277,-46 348,-46 348,-26 277,-26"/>
<polygon fill="none" stroke="#000000" points="277,-6 277,-26 348,-26 348,-6 277,-6"/>
</g>
<!-- A0&#45;&gt;A5 -->
<g id="edge2" class="edge">
<title>A0&#45;&gt;A5</title>
<path fill="none" stroke="#000000" stroke-dasharray="5,2" d="M234.1697,-147.8006C251.6666,-124.0157 270.6119,-98.262 285.4298,-78.1189"/>
<polygon fill="#000000" stroke="#000000" points="228.0503,-156.1191 230.3512,-145.3973 231.0132,-152.0915 233.9761,-148.0638 233.9761,-148.0638 233.9761,-148.0638 231.0132,-152.0915 237.6009,-150.7304 228.0503,-156.1191 228.0503,-156.1191"/>
</g>
<!-- A1 -->
<g id="node2" class="node">
<title>A1</title>
<polygon fill="none" stroke="#000000" points="392,-254 392,-286 467,-286 467,-254 392,-254"/>
<text text-anchor="start" x="403.385" y="-267" font-family="Helvetica,sans-Serif" font-size="10.00" fill="#000000">A:WolfFood</text>
<polygon fill="none" stroke="#000000" points="392,-222 392,-254 467,-254 467,-222 392,-222"/>
<text text-anchor="start" x="428.1105" y="-235" font-family="Helvetica,sans-Serif" font-size="10.00" fill="#000000"> </text>
<polygon fill="none" stroke="#000000" points="392,-166 392,-222 467,-222 467,-166 392,-166"/>
<text text-anchor="start" x="406.4395" y="-203" font-family="Helvetica,sans-Serif" font-size="10.00" fill="#000000">type:string</text>
<text text-anchor="start" x="404.2145" y="-191" font-family="Helvetica,sans-Serif" font-size="10.00" fill="#000000">size:double</text>
<text text-anchor="start" x="401.8595" y="-179" font-family="Helvetica,sans-Serif" font-size="10.00" fill="#000000">+RunAway()</text>
<polygon fill="none" stroke="#000000" points="392,-146 392,-166 467,-166 467,-146 392,-146"/>
</g>
<!-- A6 -->
<g id="node7" class="node">
<title>A6</title>
<polygon fill="none" stroke="#000000" points="369,-46 369,-78 417,-78 417,-46 369,-46"/>
<text text-anchor="start" x="378.553" y="-59" font-family="Helvetica,sans-Serif" font-size="10.00" fill="#000000">Rabbit</text>
<polygon fill="none" stroke="#000000" points="369,-26 369,-46 417,-46 417,-26 369,-26"/>
<polygon fill="none" stroke="#000000" points="369,-6 369,-26 417,-26 417,-6 369,-6"/>
</g>
<!-- A1&#45;&gt;A6 -->
<g id="edge3" class="edge">
<title>A1&#45;&gt;A6</title>
<path fill="none" stroke="#000000" stroke-dasharray="5,2" d="M412.4687,-136.0989C408.2788,-115.8475 403.982,-95.0796 400.4946,-78.2238"/>
<polygon fill="#000000" stroke="#000000" points="414.513,-145.9797 408.0802,-137.0988 413.5,-141.0834 412.4869,-136.1871 412.4869,-136.1871 412.4869,-136.1871 413.5,-141.0834 416.8936,-135.2753 414.513,-145.9797 414.513,-145.9797"/>
</g>
<!-- A7 -->
<g id="node8" class="node">
<title>A7</title>
<polygon fill="none" stroke="#000000" points="445,-46 445,-78 486,-78 486,-46 445,-46"/>
<text text-anchor="start" x="454.667" y="-59" font-family="Helvetica,sans-Serif" font-size="10.00" fill="#000000">Deer</text>
<polygon fill="none" stroke="#000000" points="445,-26 445,-46 486,-46 486,-26 445,-26"/>
<polygon fill="none" stroke="#000000" points="445,-6 445,-26 486,-26 486,-6 445,-6"/>
</g>
<!-- A1&#45;&gt;A7 -->
<g id="edge4" class="edge">
<title>A1&#45;&gt;A7</title>
<path fill="none" stroke="#000000" stroke-dasharray="5,2" d="M445.5313,-136.0989C449.7212,-115.8475 454.018,-95.0796 457.5054,-78.2238"/>
<polygon fill="#000000" stroke="#000000" points="443.487,-145.9797 441.1064,-135.2753 444.5,-141.0834 445.5131,-136.1871 445.5131,-136.1871 445.5131,-136.1871 444.5,-141.0834 449.9198,-137.0988 443.487,-145.9797 443.487,-145.9797"/>
</g>
</g>
</svg>
