<?xml version="1.0" encoding="UTF-8" standalone="no"?>
<!DOCTYPE svg PUBLIC "-//W3C//DTD SVG 1.1//EN"
 "http://www.w3.org/Graphics/SVG/1.1/DTD/svg11.dtd">
<!-- Generated by graphviz version 2.40.1 (20161225.0304)
 -->
<!-- Title: G Pages: 1 -->
<svg width="206pt" height="366pt"
 viewBox="0.00 0.00 206.00 366.00" xmlns="http://www.w3.org/2000/svg" xmlns:xlink="http://www.w3.org/1999/xlink">
<g id="graph0" class="graph" transform="scale(1 1) rotate(0) translate(4 362)">
<title>G</title>
<polygon fill="#ffffff" stroke="transparent" points="-4,4 -4,-362 202,-362 202,4 -4,4"/>
<!-- A0 -->
<g id="node1" class="node">
<title>A0</title>
<polygon fill="none" stroke="#000000" points="11,-326 11,-358 87,-358 87,-326 11,-326"/>
<text text-anchor="start" x="24.8345" y="-339" font-family="Helvetica,sans-Serif" font-size="10.00" fill="#000000">A:HotDrink</text>
<polygon fill="none" stroke="#000000" points="11,-294 11,-326 87,-326 87,-294 11,-294"/>
<text text-anchor="start" x="47.6105" y="-307" font-family="Helvetica,sans-Serif" font-size="10.00" fill="#000000"> </text>
<polygon fill="none" stroke="#000000" points="11,-214 11,-294 87,-294 87,-214 11,-214"/>
<text text-anchor="start" x="26.5045" y="-275" font-family="Helvetica,sans-Serif" font-size="10.00" fill="#000000">Milk:string</text>
<text text-anchor="start" x="22.0505" y="-263" font-family="Helvetica,sans-Serif" font-size="10.00" fill="#000000">Sugar:string</text>
<text text-anchor="start" x="31.0885" y="-251" font-family="Helvetica,sans-Serif" font-size="10.00" fill="#000000">+Drink()</text>
<text text-anchor="start" x="23.585" y="-239" font-family="Helvetica,sans-Serif" font-size="10.00" fill="#000000"> +AddMilk()</text>
<text text-anchor="start" x="20.5205" y="-227" font-family="Helvetica,sans-Serif" font-size="10.00" fill="#000000">+AddSugar()</text>
<polygon fill="none" stroke="#000000" points="11,-194 11,-214 87,-214 87,-194 11,-194"/>
</g>
<!-- A2 -->
<g id="node3" class="node">
<title>A2</title>
<polygon fill="none" stroke="#000000" points="0,-106 0,-138 92,-138 92,-106 0,-106"/>
<text text-anchor="start" x="16.8255" y="-119" font-family="Helvetica,sans-Serif" font-size="10.00" fill="#000000">CupOfCoffee</text>
<polygon fill="none" stroke="#000000" points="0,-86 0,-106 92,-106 92,-86 0,-86"/>
<polygon fill="none" stroke="#000000" points="0,-6 0,-86 92,-86 92,-6 0,-6"/>
<text text-anchor="start" x="12.6565" y="-67" font-family="Helvetica,sans-Serif" font-size="10.00" fill="#000000">Volume:double</text>
<text text-anchor="start" x="20.4455" y="-55" font-family="Helvetica,sans-Serif" font-size="10.00" fill="#000000">Color:string</text>
<text text-anchor="start" x="9.6015" y="-43" font-family="Helvetica,sans-Serif" font-size="10.00" fill="#000000">BeanType:string</text>
<text text-anchor="start" x="31.564" y="-31" font-family="Helvetica,sans-Serif" font-size="10.00" fill="#000000">Refill()</text>
<text text-anchor="start" x="29.8925" y="-19" font-family="Helvetica,sans-Serif" font-size="10.00" fill="#000000">Wash()</text>
</g>
<!-- A0&#45;&gt;A2 -->
<g id="edge1" class="edge">
<title>A0&#45;&gt;A2</title>
<path fill="none" stroke="#000000" stroke-dasharray="5,2" d="M47.6451,-183.8671C47.4191,-168.5001 47.1887,-152.8316 46.9746,-138.2742"/>
<polygon fill="#000000" stroke="#000000" points="47.7928,-193.9072 43.1461,-183.9745 47.7192,-188.9077 47.6456,-183.9083 47.6456,-183.9083 47.6456,-183.9083 47.7192,-188.9077 52.1451,-183.8421 47.7928,-193.9072 47.7928,-193.9072"/>
</g>
<!-- A3 -->
<g id="node4" class="node">
<title>A3</title>
<polygon fill="none" stroke="#000000" points="110,-112 110,-144 198,-144 198,-112 110,-112"/>
<text text-anchor="start" x="130.939" y="-125" font-family="Helvetica,sans-Serif" font-size="10.00" fill="#000000">CupOfTea</text>
<polygon fill="none" stroke="#000000" points="110,-92 110,-112 198,-112 198,-92 110,-92"/>
<polygon fill="none" stroke="#000000" points="110,0 110,-92 198,-92 198,0 110,0"/>
<text text-anchor="start" x="120.6565" y="-73" font-family="Helvetica,sans-Serif" font-size="10.00" fill="#000000">Volume:double</text>
<text text-anchor="start" x="140.668" y="-61" font-family="Helvetica,sans-Serif" font-size="10.00" fill="#000000">Color:</text>
<text text-anchor="start" x="141.7775" y="-49" font-family="Helvetica,sans-Serif" font-size="10.00" fill="#000000">string</text>
<text text-anchor="start" x="119.5465" y="-37" font-family="Helvetica,sans-Serif" font-size="10.00" fill="#000000">LeafType:string</text>
<text text-anchor="start" x="139.564" y="-25" font-family="Helvetica,sans-Serif" font-size="10.00" fill="#000000">Refill()</text>
<text text-anchor="start" x="137.8925" y="-13" font-family="Helvetica,sans-Serif" font-size="10.00" fill="#000000">Wash()</text>
</g>
<!-- A0&#45;&gt;A3 -->
<g id="edge2" class="edge">
<title>A0&#45;&gt;A3</title>
<path fill="none" stroke="#000000" stroke-dasharray="5,2" d="M91.6416,-193.1534C99.9697,-176.9732 108.641,-160.126 116.7763,-144.3204"/>
<polygon fill="#000000" stroke="#000000" points="87.0559,-202.0629 87.6312,-191.1121 89.3441,-197.6172 91.6324,-193.1715 91.6324,-193.1715 91.6324,-193.1715 89.3441,-197.6172 95.6335,-195.2309 87.0559,-202.0629 87.0559,-202.0629"/>
</g>
<!-- A1 -->
<g id="node2" class="node">
<title>A1</title>
<polygon fill="none" stroke="#000000" points="108,-304 108,-336 197,-336 197,-304 108,-304"/>
<text text-anchor="start" x="136.2435" y="-317" font-family="Helvetica,sans-Serif" font-size="10.00" fill="#000000">+I:ICup</text>
<polygon fill="none" stroke="#000000" points="108,-284 108,-304 197,-304 197,-284 108,-284"/>
<polygon fill="none" stroke="#000000" points="108,-216 108,-284 197,-284 197,-216 108,-216"/>
<text text-anchor="start" x="117.767" y="-265" font-family="Helvetica,sans-Serif" font-size="10.00" fill="#000000"> Volume:double</text>
<text text-anchor="start" x="126.9455" y="-253" font-family="Helvetica,sans-Serif" font-size="10.00" fill="#000000">Color:string</text>
<text text-anchor="start" x="138.064" y="-241" font-family="Helvetica,sans-Serif" font-size="10.00" fill="#000000">Refill()</text>
<text text-anchor="start" x="136.3925" y="-229" font-family="Helvetica,sans-Serif" font-size="10.00" fill="#000000">Wash()</text>
</g>
<!-- A1&#45;&gt;A2 -->
<g id="edge3" class="edge">
<title>A1&#45;&gt;A2</title>
<path fill="none" stroke="#000000" d="M116.0731,-206.8577C104.5272,-184.6373 91.7711,-160.0878 80.342,-138.0921"/>
<polygon fill="none" stroke="#000000" points="113.0532,-208.6368 120.7698,-215.8966 119.2647,-205.4092 113.0532,-208.6368"/>
</g>
<!-- A1&#45;&gt;A3 -->
<g id="edge4" class="edge">
<title>A1&#45;&gt;A3</title>
<path fill="none" stroke="#000000" d="M152.6892,-205.7018C152.8837,-185.862 153.0956,-164.2453 153.2913,-144.2906"/>
<polygon fill="none" stroke="#000000" points="149.1875,-205.8628 152.5892,-215.8966 156.1872,-205.9315 149.1875,-205.8628"/>
</g>
</g>
</svg>
